<?xml version="1.0" encoding="utf-8"?>
<!-- Generator: Adobe Illustrator 24.0.3, SVG Export Plug-In . SVG Version: 6.00 Build 0)  -->
<svg version="1.1" id="Layer_1" xmlns="http://www.w3.org/2000/svg" xmlns:xlink="http://www.w3.org/1999/xlink" x="0px" y="0px"
	 viewBox="0 0 400 400" style="enable-background:new 0 0 400 400;" xml:space="preserve">
<style type="text/css">
	.st0{display:none;}
	.st1{fill:#0F3B63;}
	.st2{fill:none;}
</style>
<g id="xZ3M71.tif" class="st0">
	
		<image style="display:inline;overflow:visible;" width="709" height="544" id="Layer_1_1_" xlink:href="C63B2F66E4EA550.png"  transform="matrix(0.5054 0 0 0.5054 20.6846 62.3247)">
	</image>
</g>
<path class="st1" d="M359,63H41c-10.8,0-19.5,8.8-19.5,19.5v234.9c0,10.8,8.8,19.5,19.5,19.5H359c10.8,0,19.5-8.8,19.5-19.5V82.5
	C378.5,71.8,369.7,63,359,63z M100,72c4.4,0,8,3.6,8,8s-3.6,8-8,8s-8-3.6-8-8S95.6,72,100,72z M78,72c4.4,0,8,3.6,8,8s-3.6,8-8,8
	s-8-3.6-8-8S73.6,72,78,72z M56,72c4.4,0,8,3.6,8,8s-3.6,8-8,8s-8-3.6-8-8S51.6,72,56,72z M362,322H38V97h324V322z"/>
<g>
	<path class="st1" d="M119.2,184L119.2,184c-1.4,5.1-4.1,13.3-7.2,22.7h14.8C123,195.7,120.6,188.7,119.2,184z"/>
	<path class="st1" d="M72.5,123v200h255V123H72.5z M112.2,175.9h14.7l19.2,52.1h-12.3l-4.4-12h-19.8l-4.2,12H93.9L112.2,175.9z
		 M306,300H94v-13h212V300z M306,263H94v-13h212V263z M306,226H160v-13h146V226z M306,188H160v-13h146V188z"/>
</g>
<rect class="st2" width="400" height="400"/>
</svg>
