<?xml version="1.0" encoding="utf-8"?>
<!-- Generator: Adobe Illustrator 24.0.3, SVG Export Plug-In . SVG Version: 6.00 Build 0)  -->
<svg version="1.1" id="Layer_1" xmlns="http://www.w3.org/2000/svg" xmlns:xlink="http://www.w3.org/1999/xlink" x="0px" y="0px"
	 viewBox="0 0 400 400" style="enable-background:new 0 0 400 400;" xml:space="preserve">
<style type="text/css">
	.st0{fill:none;}
	.st1{fill:#0F3B63;}
</style>
<g>
	<rect x="109.8" y="109.8" class="st0" width="180" height="180"/>
</g>
<path class="st1" d="M263.7,130.5c-7.9-2.5-16.5-3.5-24.8-3.5c-13.8,0-28.7,2.8-39,10.6c-10.3-7.8-25.2-10.6-39-10.6
	c-13.8,0-28.7,2.8-39,10.6v103.9c0,1.8,1.8,3.5,3.5,3.5c0.7,0,1.1-0.4,1.8-0.4c9.6-4.6,23.4-7.8,33.7-7.8c13.8,0,28.7,2.8,39,10.6
	c9.6-6,27-10.6,39-10.6c11.7,0,23.8,2.1,33.7,7.4c0.7,0.4,1.1,0.4,1.8,0.4c1.8,0,3.5-1.8,3.5-3.5V137.6
	C273.6,134.4,269,132.3,263.7,130.5z M263.7,226.3c-7.8-2.5-16.3-3.5-24.8-3.5c-12.1,0-29.4,4.6-39,10.6v-81.6
	c9.6-6,27-10.6,39-10.6c8.5,0,17,1.1,24.8,3.5V226.3z"/>
<g>
	<path class="st1" d="M238.9,169.6c6.2,0,12.3,0.6,17.7,1.8v-10.8c-5.6-1.1-11.6-1.7-17.7-1.7c-12.1,0-23,2.1-31.9,5.9v11.8
		C214.9,172,226.1,169.6,238.9,169.6z"/>
	<path class="st1" d="M206.9,183.7v11.8c8-4.5,19.2-7,31.9-7c6.2,0,12.3,0.6,17.7,1.8v-10.8c-5.6-1.1-11.6-1.7-17.7-1.7
		C226.8,177.8,215.9,179.9,206.9,183.7z"/>
	<path class="st1" d="M238.9,196.7c-12.1,0-23,2.1-31.9,5.9v11.8c8-4.5,19.2-7,31.9-7c6.2,0,12.3,0.6,17.7,1.8v-10.8
		C251,197.3,245,196.7,238.9,196.7z"/>
</g>
<path d="M348.4,288.9V94.3c0-4.5-3.7-8.2-8.2-8.2H59.5c-4.5,0-8.2,3.7-8.2,8.2v194.6h-25c-2.6,0-4.7,2.1-4.7,4.7v20.3
	c0,2.6,2.1,4.7,4.7,4.7h347c2.6,0,4.7-2.1,4.7-4.7v-20.3c0-2.6-2.1-4.7-4.7-4.7H348.4z M229.5,290h-59.4v-8h59.4V290z M326.6,275.2
	H73.1c-5.2,0-9.4-4.2-9.4-9.4V114.4c0-5.2,4.2-9.4,9.4-9.4h253.5c5.2,0,9.4,4.2,9.4,9.4v151.4C336,271,331.8,275.2,326.6,275.2z"/>
<rect class="st0" width="400" height="400"/>
</svg>
