<?xml version="1.0" encoding="utf-8"?>
<!-- Generator: Adobe Illustrator 24.0.3, SVG Export Plug-In . SVG Version: 6.00 Build 0)  -->
<svg version="1.1" id="Layer_1" xmlns="http://www.w3.org/2000/svg" xmlns:xlink="http://www.w3.org/1999/xlink" x="0px" y="0px"
	 viewBox="0 0 400 400" style="enable-background:new 0 0 400 400;" xml:space="preserve">
<style type="text/css">
	.st0{fill:#0F3B63;}
	.st1{fill:none;}
</style>
<rect x="183.3" y="265.9" class="st0" width="33" height="33"/>
<path class="st0" d="M199.8,34.6c-91.2,0-165.2,74-165.2,165.2S108.7,365,199.8,365S365,291,365,199.8S291,34.6,199.8,34.6z
	 M199.8,331.9c-72.8,0-132.1-59.3-132.1-132.1S127,67.6,199.8,67.6S332,126.9,332,199.8S272.7,331.9,199.8,331.9z"/>
<path class="st0" d="M199.8,100.7c-36.5,0-66.1,29.6-66.1,66.1h33c0-18.2,14.9-33,33-33s33,14.9,33,33c0,33-49.6,28.9-49.6,82.6h33
	c0-37.2,49.6-41.3,49.6-82.6C265.9,130.2,236.3,100.7,199.8,100.7z"/>
<rect class="st1" width="400" height="400"/>
</svg>
