<?xml version="1.0" encoding="utf-8"?>
<!-- Generator: Adobe Illustrator 24.0.3, SVG Export Plug-In . SVG Version: 6.00 Build 0)  -->
<svg version="1.1" id="Layer_1" xmlns="http://www.w3.org/2000/svg" xmlns:xlink="http://www.w3.org/1999/xlink" x="0px" y="0px"
	 viewBox="0 0 400 400" style="enable-background:new 0 0 400 400;" xml:space="preserve">
<style type="text/css">
	.st0{fill:none;}
	.st1{fill:#0F3B63;}
	.st2{fill:#C61F48;}
</style>
<path class="st0" d="M30.7,30.6H369v338.3H30.7V30.6z"/>
<path class="st1" d="M312.6,306.8V143.4L228,58.8H115.3c-15.5,0-28.1,12.7-28.1,28.2l-0.1,225.5c0,15.5,12.5,28.2,28.1,28.2h169.3
	c6.3,0,12-2.1,16.8-5.6l-62.4-62.4c-11.3,7.3-24.5,11.7-38.9,11.7c-38.9,0-70.5-31.6-70.5-70.5s31.6-70.5,70.5-70.5
	s70.5,31.6,70.5,70.5c0,14.4-4.4,27.6-11.7,38.8L312.6,306.8z M157.6,213.9c0,23.4,18.9,42.3,42.3,42.3s42.3-18.9,42.3-42.3
	s-18.9-42.3-42.3-42.3S157.6,190.5,157.6,213.9z"/>
<path class="st2" d="M246.6,273.2v-7.1c0-0.5-0.2-1-0.6-1.4l-2.7-2.8c-0.4-0.4-0.9-0.6-1.4-0.6c-0.5,0-0.9,0.2-1.3,0.5
	c-11.5,9.8-26.1,15.3-41.1,15.3c-34.8,0-63.2-28.3-63.2-63.2c0-34.8,28.3-63.2,63.2-63.2s63.2,28.3,63.2,63.2
	c0,15.1-5.4,29.7-15.3,41.1c-0.7,0.8-0.6,2,0.1,2.7l2.8,2.7c0.4,0.4,0.9,0.6,1.4,0.6h7.1l48.1,48.1l-12.1,12.1L246.6,273.2z
	 M199.5,163.8c-27.6,0-50.1,22.5-50.1,50.1s22.5,50.1,50.1,50.1c27.6,0,50.1-22.5,50.1-50.1S227.1,163.8,199.5,163.8z"/>
<rect class="st0" width="400" height="400"/>
</svg>
