<?xml version="1.0" encoding="utf-8"?>
<!-- Generator: Adobe Illustrator 24.0.3, SVG Export Plug-In . SVG Version: 6.00 Build 0)  -->
<svg version="1.1" id="searchableDatabase" xmlns="http://www.w3.org/2000/svg" xmlns:xlink="http://www.w3.org/1999/xlink" x="0px"
	 y="0px" viewBox="0 0 400 400" style="enable-background:new 0 0 400 400;" xml:space="preserve">
<style type="text/css">
	.st0{fill:none;}
</style>
<g>
	<g>
		<circle cx="96.2" cy="112.4" r="11.2"/>
		<circle cx="96.2" cy="187.4" r="11.2"/>
		<circle cx="96.2" cy="262.4" r="11.2"/>
	</g>
	<g id="cylinders">
		<path d="M193.2,308.8c-1.1,0-2.1,0-3.2,0c-28.4,0-56.5-2.4-79.1-6.8c-24.7-4.8-32.8-9.9-34.1-11.8v-64.9c5.6,2.6,14.5,5.3,29,7.6
			c16.9,2.8,37.9,4.6,60.8,5.3c0.3-2.5,0.8-5,1.4-7.5c-22-0.7-42.3-2.4-58.8-4.9c-20.7-3.2-29.4-7-32.4-9.1v-66.5
			c5.6,2.6,14.5,5.3,29,7.6c22.5,3.7,52.4,5.7,84.1,5.7c31.7,0,61.6-2,84.1-5.7c14.5-2.4,23.4-5,29-7.6v44.8
			c3.8,4.1,7.1,8.5,10,13.3V66.1h0c0-0.2,0-0.4,0-0.6c0-5.7-4.4-13-38.8-18.6c-22.6-3.7-52.5-5.7-84.3-5.7c-31.8,0-61.8,2-84.3,5.7
			c-34.4,5.6-38.8,12.9-38.8,18.6c0,0.2,0,0.4,0,0.6h0v224.6c0,5.3,4,13.3,38.6,20.5c23.7,4.9,53.8,7.7,84.5,7.7
			c5.7,0,11.5-0.1,17.1-0.3C202.1,315.8,197.5,312.6,193.2,308.8z M111.2,56.1c21.6-3.2,49.5-5,78.8-5c29.3,0,57.2,1.8,78.8,5
			c24.5,3.7,31.8,7.8,33.8,9.4c-2,1.6-9.3,5.7-33.8,9.4c-21.6,3.2-49.5,5-78.8,5s-57.2-1.8-78.8-5c-24.5-3.7-31.8-7.8-33.8-9.4
			C79.4,64,86.7,59.8,111.2,56.1z M76.9,76.7c5.8,2.6,14.8,5.2,28.8,7.5c22.6,3.7,52.5,5.7,84.3,5.7c31.8,0,61.8-2,84.3-5.7
			c14-2.3,23-4.9,28.8-7.5V142c-3,2.2-11.7,5.9-32.4,9.1c-21.9,3.4-50.5,5.3-80.8,5.3c-30.2,0-58.9-1.9-80.8-5.3
			c-20.7-3.2-29.4-7-32.4-9.1V76.7z"/>
		<path d="M279,232.3c-1.2-2.4-2.7-4.7-4.4-6.8c-1.3,0.2-2.6,0.4-3.9,0.6c-16.5,2.6-36.9,4.3-59,4.9c-1.3,2.4-2.3,4.9-3.1,7.6
			c24.7-0.6,47.4-2.5,65.5-5.5C275.8,232.8,277.5,232.6,279,232.3z"/>
	</g>
</g>
<path d="M309,297h-8.4l-3-2.9c10.4-12.1,16.7-27.9,16.7-45c0-38.2-31-69.2-69.2-69.2s-69.2,31-69.2,69.2s31,69.2,69.2,69.2
	c17.1,0,32.9-6.3,45-16.7l2.9,3v8.4l53.2,53.1l15.9-15.9L309,297z M245.1,297c-26.5,0-47.9-21.4-47.9-47.9s21.4-47.9,47.9-47.9
	s47.9,21.4,47.9,47.9S271.6,297,245.1,297z"/>
<rect class="st0" width="400" height="400"/>
</svg>
